<?xml version="1.0" encoding="utf-8"?>
<!DOCTYPE svg PUBLIC "-//W3C//DTD SVG 1.1//EN" "http://www.w3.org/Graphics/SVG/1.1/DTD/svg11.dtd">
<svg version="1.1" id="Ebene_1" xmlns="http://www.w3.org/2000/svg" xmlns:xlink="http://www.w3.org/1999/xlink" x="0px" y="0px" width="52.25px" height="52.25px" viewBox="0 0 52.25 52.25" enable-background="new 0 0 52.25 52.25" xml:space="preserve"><path d="M26.125,0C11.696,0,0,11.697,0,26.125S11.696,52.25,26.125,52.25S52.25,40.553,52.25,26.125S40.554,0,26.125,0z M18.515,37.537h-6.887v-3.355h6.887V37.537z M18.515,31.047h-6.887v-3.355h6.887V31.047z M18.515,24.558h-6.887v-3.355h6.887 V24.558z M18.515,18.068h-6.887v-3.355h6.887V18.068z M30.64,37.537H20.398v-3.355H30.64V37.537z M30.64,31.047H20.398v-3.355H30.64 V31.047z M30.64,24.558H20.398v-3.355H30.64V24.558z M30.64,18.068H20.398v-3.355H30.64V18.068z M40.622,37.537h-8.099v-3.355h8.099 V37.537z M40.622,31.047h-8.099v-3.355h8.099V31.047z M40.622,24.558h-8.099v-3.355h8.099V24.558z M40.622,18.068h-8.099v-3.355 h8.099V18.068z"/></svg>
