<?xml version="1.0" encoding="utf-8"?>
<!DOCTYPE svg PUBLIC "-//W3C//DTD SVG 1.1//EN" "http://www.w3.org/Graphics/SVG/1.1/DTD/svg11.dtd">
<svg version="1.1" id="Ebene_1" xmlns="http://www.w3.org/2000/svg" xmlns:xlink="http://www.w3.org/1999/xlink" x="0px" y="0px" width="52.25px" height="52.25px" viewBox="0 0 52.25 52.25" enable-background="new 0 0 52.25 52.25" xml:space="preserve"><path d="M0,0v52.25h52.25V0H0z M6.5,15.333l2.986-2.986l3.347,0.486l-0.486-3.347L15.333,6.5l1.5,10.333L6.5,15.333z M16.833,35.417l-1.5,10.333l-2.986-2.986l0.486-3.347l-3.347,0.486L6.5,36.917L16.833,35.417z M45.75,36.917l-2.985,2.986 l-3.348-0.486l0.486,3.347l-2.986,2.986l-1.5-10.333L45.75,36.917z M36.917,6.5l2.986,2.986l-0.486,3.347l3.348-0.486l2.985,2.986 l-10.333,1.5L36.917,6.5z"/></svg>