<?xml version="1.0" encoding="utf-8"?>
<!DOCTYPE svg PUBLIC "-//W3C//DTD SVG 1.1//EN" "http://www.w3.org/Graphics/SVG/1.1/DTD/svg11.dtd">
<svg version="1.1" id="Ebene_1" xmlns="http://www.w3.org/2000/svg" xmlns:xlink="http://www.w3.org/1999/xlink" x="0px" y="0px" width="52.25px" height="52.25px" viewBox="0 0 52.25 52.25" enable-background="new 0 0 52.25 52.25" xml:space="preserve"><path d="M0,0v52.25h52.25V0H0z M16.833,8l-2.986,2.986L10.5,10.5l0.486,3.347L8,16.833L6.5,6.5L16.833,8z M6.5,45.75L8,35.417 l2.986,2.986L10.5,41.75l3.347-0.486l2.986,2.986L6.5,45.75z M35.417,44.25l2.985-2.986l3.348,0.486l-0.486-3.347l2.986-2.986 l1.5,10.333L35.417,44.25z M44.25,16.833l-2.986-2.986L41.75,10.5l-3.348,0.486L35.417,8L45.75,6.5L44.25,16.833z"/></svg>