<?xml version="1.0" encoding="utf-8"?>
<!DOCTYPE svg PUBLIC "-//W3C//DTD SVG 1.1//EN" "http://www.w3.org/Graphics/SVG/1.1/DTD/svg11.dtd">
<svg version="1.1" id="Ebene_1" xmlns="http://www.w3.org/2000/svg" xmlns:xlink="http://www.w3.org/1999/xlink" x="0px" y="0px" width="104.5px" height="104.5px" viewBox="0 0 104.5 104.5" enable-background="new 0 0 104.5 104.5" xml:space="preserve"><g><path fill="#FFFFFF" d="M52.524,43.074c0-5.425-3.234-13.862-9.47-13.862c-1.96,0-4.061,0.979-5.268,2.488 c-1.278,1.583-1.65,3.611-1.65,5.576c0,5.045,2.93,13.405,9.398,13.405c1.879,0,3.9-0.899,5.111-2.105 C52.375,46.838,52.524,44.432,52.524,43.074z"/><path fill="#FFFFFF" d="M-0.406,0v104.5h104.5V0H-0.406z M41.923,84.134c-10.902,0-16.16-5.195-16.16-10.774 c0-2.71,1.349-6.55,5.786-9.188c4.658-2.863,10.977-3.236,14.362-3.471c-1.058-1.354-2.257-2.785-2.257-5.119 c0-1.279,0.377-2.033,0.748-2.938c-0.828,0.076-1.65,0.15-2.403,0.15c-7.967,0-12.477-5.956-12.477-11.831 c0-3.461,1.575-7.306,4.809-10.094c4.288-3.54,10.144-4.501,14.208-4.501h14.812l-4.889,3.071h-4.658 c1.728,1.43,5.332,4.443,5.332,10.172c0,5.571-3.153,8.214-6.31,10.699c-0.979,0.977-2.106,2.032-2.106,3.692 c0,1.654,1.128,2.557,1.953,3.241l2.709,2.104c3.309,2.786,6.315,5.348,6.313,10.551C61.696,76.98,54.853,84.134,41.923,84.134z M81.925,54.329h-7.558v7.578h-3.721v-7.578h-7.52v-3.761h7.52v-7.532h3.721v7.532h7.558V54.329z"/><path fill="#FFFFFF" d="M48.464,62.89c-0.599-0.076-0.975-0.076-1.728-0.076c-0.676,0-4.737,0.148-7.893,1.21 c-1.654,0.599-6.464,2.408-6.464,7.756c0,5.351,5.187,9.198,13.229,9.198c7.218,0,11.055-3.475,11.055-8.14 C56.664,68.985,54.181,66.958,48.464,62.89z"/></g></svg>