<?xml version="1.0" encoding="utf-8"?>
<!DOCTYPE svg PUBLIC "-//W3C//DTD SVG 1.1//EN" "http://www.w3.org/Graphics/SVG/1.1/DTD/svg11.dtd">
<svg version="1.1" id="Ebene_1" xmlns="http://www.w3.org/2000/svg" xmlns:xlink="http://www.w3.org/1999/xlink" x="0px" y="0px" width="104.5px" height="104.5px" viewBox="0 0 104.5 104.5" enable-background="new 0 0 104.5 104.5" xml:space="preserve"><path fill="#FFFFFF" d="M-0.039-0.201v104.5h104.5v-104.5H-0.039z M35.561,82.951H21.699V41.249h13.861V82.951z M28.631,35.556 h-0.09c-4.652,0-7.66-3.203-7.66-7.205c0-4.092,3.1-7.205,7.842-7.205s7.66,3.113,7.75,7.205 C36.473,32.353,33.465,35.556,28.631,35.556z M85.541,82.951H71.682v-22.31c0-5.607-2.006-9.43-7.021-9.43 c-3.828,0-6.111,2.578-7.111,5.069c-0.367,0.89-0.457,2.137-0.457,3.383v23.287H43.232c0,0,0.182-37.788,0-41.702h13.859v5.908 c1.842-2.841,5.135-6.887,12.492-6.887c9.119,0,15.957,5.959,15.957,18.77V82.951z"/></svg>