<?xml version="1.0" encoding="utf-8"?>
<!DOCTYPE svg PUBLIC "-//W3C//DTD SVG 1.1//EN" "http://www.w3.org/Graphics/SVG/1.1/DTD/svg11.dtd">
<svg version="1.1" id="Ebene_1" xmlns="http://www.w3.org/2000/svg" xmlns:xlink="http://www.w3.org/1999/xlink" x="0px" y="0px" width="52.25px" height="52.25px" viewBox="0 0 52.25 52.25" enable-background="new 0 0 52.25 52.25" xml:space="preserve"><path d="M26.125,0C11.696,0,0,11.696,0,26.125C0,40.553,11.696,52.25,26.125,52.25S52.25,40.553,52.25,26.125 C52.25,11.696,40.554,0,26.125,0z M20.97,26.125c0,0.604-0.113,1.181-0.312,1.716l8.729,6.096c0.865-0.738,1.984-1.185,3.21-1.185 c2.735,0,4.952,2.217,4.952,4.952c0,2.735-2.217,4.952-4.952,4.952c-2.734,0-4.952-2.217-4.952-4.952 c0-0.604,0.114-1.181,0.312-1.716l-8.729-6.096c-0.864,0.737-1.984,1.186-3.21,1.186c-2.734,0-4.952-2.217-4.952-4.952 c0-2.735,2.218-4.952,4.952-4.952c1.226,0,2.346,0.447,3.21,1.185l8.729-6.096c-0.198-0.535-0.312-1.112-0.312-1.716 c0-2.735,2.218-4.952,4.952-4.952c2.735,0,4.952,2.217,4.952,4.952c0,2.735-2.217,4.952-4.952,4.952 c-1.226,0-2.345-0.448-3.21-1.186l-8.729,6.096C20.856,24.944,20.97,25.521,20.97,26.125z"/></svg>