<?xml version="1.0" encoding="utf-8"?>
<!DOCTYPE svg PUBLIC "-//W3C//DTD SVG 1.1//EN" "http://www.w3.org/Graphics/SVG/1.1/DTD/svg11.dtd">
<svg version="1.1" id="Ebene_1" xmlns="http://www.w3.org/2000/svg" xmlns:xlink="http://www.w3.org/1999/xlink" x="0px" y="0px" width="104.5px" height="104.5px" viewBox="0 0 104.5 104.5" enable-background="new 0 0 104.5 104.5" xml:space="preserve"><path fill="#FFFFFF" d="M-0.682-0.405v104.5h104.5v-104.5H-0.682z M78.845,37.854c0.027,0.604,0.041,1.211,0.041,1.821 c0,18.598-14.156,40.043-40.042,40.043c-7.948,0-15.346-2.33-21.574-6.323c1.101,0.13,2.222,0.196,3.357,0.196 c6.594,0,12.662-2.25,17.479-6.024c-6.159-0.113-11.355-4.183-13.146-9.772c0.859,0.162,1.74,0.252,2.647,0.252 c1.283,0,2.526-0.172,3.707-0.494c-6.438-1.293-11.289-6.981-11.289-13.8c0-0.059,0-0.118,0.002-0.177 c1.897,1.054,4.067,1.688,6.374,1.761c-3.776-2.524-6.261-6.832-6.261-11.714c0-2.58,0.694-4.997,1.905-7.075 c6.941,8.515,17.312,14.118,29.008,14.704c-0.24-1.03-0.364-2.104-0.364-3.207c0-7.772,6.302-14.074,14.073-14.074 c4.048,0,7.707,1.709,10.273,4.444c3.206-0.631,6.218-1.802,8.938-3.415c-1.051,3.287-3.282,6.044-6.188,7.786 c2.847-0.34,5.56-1.097,8.083-2.216C83.98,33.393,81.595,35.871,78.845,37.854z"/></svg>